<svg width="181" height="24" viewBox="0 0 181 24" fill="none" xmlns="http://www.w3.org/2000/svg">
<g clip-path="url(#clip0_1_6)">
<path fill-rule="evenodd" clip-rule="evenodd" d="M8 10.1409L14 7.825V15.4554C14 15.5932 13.9152 15.7168 13.7867 15.7664L8 18V10.1409Z" fill="white"/>
<path fill-rule="evenodd" clip-rule="evenodd" d="M8 6.7294L11.1374 7.858L8 9.06903L4.86257 7.858L8 6.7294ZM3 9.2829L7 10.8268V16.5421L3 14.9982V9.2829ZM9 16.5421V10.8268L13 9.2829V14.9982L9 16.5421ZM8.45133 4.76628C8.1596 4.66134 7.8404 4.66134 7.54867 4.76628L1.66151 6.88403C1.26463 7.02679 1 7.40323 1 7.825V15.4554C1 16.0065 1.33906 16.5009 1.85321 16.6993L7.6399 18.9329C7.87163 19.0224 8.12837 19.0224 8.3601 18.9329L14.1468 16.6993C14.6609 16.5009 15 16.0065 15 15.4554V7.825C15 7.40323 14.7354 7.02679 14.3385 6.88403L8.45133 4.76628Z" fill="white"/>
</g>
<path d="M33.26 18.5V5.54H35.456L41.468 14.675V5.54H43.664V18.5H41.468L35.456 9.365V18.5H33.26ZM46.1799 18.5V5.54H53.9829V7.709H48.3489V10.94H52.9029V13.1H48.3489V18.5H46.1799ZM58.7158 18.5V7.574H54.5218V5.54H65.0788V7.574H60.8848V18.5H58.7158ZM69.5764 18.5V5.54H71.5294L76.0114 14.72L80.4934 5.54H82.4464V18.5H80.4214V10.193L76.4434 18.5H75.5794L71.6104 10.193V18.5H69.5764ZM87.6928 18.77C86.9908 18.77 86.3968 18.638 85.9108 18.374C85.4248 18.104 85.0558 17.747 84.8038 17.303C84.5578 16.859 84.4348 16.37 84.4348 15.836C84.4348 15.368 84.5128 14.948 84.6688 14.576C84.8248 14.198 85.0648 13.874 85.3888 13.604C85.7128 13.328 86.1328 13.103 86.6488 12.929C87.0388 12.803 87.4948 12.689 88.0168 12.587C88.5448 12.485 89.1148 12.392 89.7268 12.308C90.3448 12.218 90.9898 12.122 91.6618 12.02L90.8878 12.461C90.8938 11.789 90.7438 11.294 90.4378 10.976C90.1318 10.658 89.6158 10.499 88.8898 10.499C88.4518 10.499 88.0288 10.601 87.6208 10.805C87.2128 11.009 86.9278 11.36 86.7658 11.858L84.7858 11.237C85.0258 10.415 85.4818 9.755 86.1538 9.257C86.8318 8.759 87.7438 8.51 88.8898 8.51C89.7538 8.51 90.5128 8.651 91.1668 8.933C91.8268 9.215 92.3158 9.677 92.6338 10.319C92.8078 10.661 92.9128 11.012 92.9488 11.372C92.9848 11.726 93.0028 12.113 93.0028 12.533V18.5H91.1038V16.394L91.4188 16.736C90.9808 17.438 90.4678 17.954 89.8798 18.284C89.2978 18.608 88.5688 18.77 87.6928 18.77ZM88.1248 17.042C88.6168 17.042 89.0368 16.955 89.3848 16.781C89.7328 16.607 90.0088 16.394 90.2128 16.142C90.4228 15.89 90.5638 15.653 90.6358 15.431C90.7498 15.155 90.8128 14.84 90.8248 14.486C90.8428 14.126 90.8518 13.835 90.8518 13.613L91.5178 13.811C90.8638 13.913 90.3028 14.003 89.8348 14.081C89.3668 14.159 88.9648 14.234 88.6288 14.306C88.2928 14.372 87.9958 14.447 87.7378 14.531C87.4858 14.621 87.2728 14.726 87.0988 14.846C86.9248 14.966 86.7898 15.104 86.6938 15.26C86.6038 15.416 86.5588 15.599 86.5588 15.809C86.5588 16.049 86.6188 16.262 86.7388 16.448C86.8588 16.628 87.0328 16.772 87.2608 16.88C87.4948 16.988 87.7828 17.042 88.1248 17.042ZM95.3459 18.5V8.78H97.2629V11.147L97.0289 10.841C97.1489 10.517 97.3079 10.223 97.5059 9.959C97.7099 9.689 97.9529 9.467 98.2349 9.293C98.4749 9.131 98.7389 9.005 99.0269 8.915C99.3209 8.819 99.6209 8.762 99.9269 8.744C100.233 8.72 100.53 8.732 100.818 8.78V10.805C100.53 10.721 100.197 10.694 99.8189 10.724C99.4469 10.754 99.1109 10.859 98.8109 11.039C98.5109 11.201 98.2649 11.408 98.0729 11.66C97.8869 11.912 97.7489 12.2 97.6589 12.524C97.5689 12.842 97.5239 13.187 97.5239 13.559V18.5H95.3459ZM102.517 18.5L102.535 5.54H104.731V13.46L108.286 8.78H110.995L107.224 13.64L111.319 18.5H108.448L104.731 13.82V18.5H102.517ZM116.464 18.77C115.48 18.77 114.616 18.557 113.872 18.131C113.128 17.705 112.546 17.114 112.126 16.358C111.712 15.602 111.505 14.732 111.505 13.748C111.505 12.686 111.709 11.765 112.117 10.985C112.525 10.199 113.092 9.59 113.818 9.158C114.544 8.726 115.384 8.51 116.338 8.51C117.346 8.51 118.201 8.747 118.903 9.221C119.611 9.689 120.136 10.352 120.478 11.21C120.82 12.068 120.949 13.079 120.865 14.243H118.714V13.451C118.708 12.395 118.522 11.624 118.156 11.138C117.79 10.652 117.214 10.409 116.428 10.409C115.54 10.409 114.88 10.685 114.448 11.237C114.016 11.783 113.8 12.584 113.8 13.64C113.8 14.624 114.016 15.386 114.448 15.926C114.88 16.466 115.51 16.736 116.338 16.736C116.872 16.736 117.331 16.619 117.715 16.385C118.105 16.145 118.405 15.8 118.615 15.35L120.757 15.998C120.385 16.874 119.809 17.555 119.029 18.041C118.255 18.527 117.4 18.77 116.464 18.77ZM113.116 14.243V12.605H119.803V14.243H113.116ZM128.57 18.5C127.928 18.62 127.298 18.671 126.68 18.653C126.068 18.641 125.519 18.53 125.033 18.32C124.547 18.104 124.178 17.765 123.926 17.303C123.704 16.883 123.587 16.454 123.575 16.016C123.563 15.578 123.557 15.083 123.557 14.531V6.08H125.717V14.405C125.717 14.795 125.72 15.137 125.726 15.431C125.738 15.725 125.801 15.965 125.915 16.151C126.131 16.511 126.476 16.712 126.95 16.754C127.424 16.796 127.964 16.772 128.57 16.682V18.5ZM121.793 10.481V8.78H128.57V10.481H121.793ZM138.935 18.77C137.987 18.77 137.192 18.545 136.55 18.095C135.908 17.645 135.425 17.033 135.101 16.259C134.777 15.479 134.615 14.606 134.615 13.64C134.615 12.662 134.777 11.786 135.101 11.012C135.425 10.238 135.899 9.629 136.523 9.185C137.153 8.735 137.93 8.51 138.854 8.51C139.772 8.51 140.567 8.735 141.239 9.185C141.917 9.629 142.442 10.238 142.814 11.012C143.186 11.78 143.372 12.656 143.372 13.64C143.372 14.612 143.189 15.485 142.823 16.259C142.457 17.033 141.941 17.645 141.275 18.095C140.609 18.545 139.829 18.77 138.935 18.77ZM134.246 22.82V8.78H136.163V15.602H136.433V22.82H134.246ZM138.602 16.826C139.166 16.826 139.631 16.685 139.997 16.403C140.363 16.121 140.633 15.74 140.807 15.26C140.987 14.774 141.077 14.234 141.077 13.64C141.077 13.052 140.987 12.518 140.807 12.038C140.627 11.552 140.348 11.168 139.97 10.886C139.592 10.598 139.112 10.454 138.53 10.454C137.978 10.454 137.528 10.589 137.18 10.859C136.832 11.123 136.574 11.495 136.406 11.975C136.244 12.449 136.163 13.004 136.163 13.64C136.163 14.27 136.244 14.825 136.406 15.305C136.574 15.785 136.835 16.16 137.189 16.43C137.549 16.694 138.02 16.826 138.602 16.826ZM145.536 18.5V5.27H147.705V18.5H145.536ZM153.119 18.77C152.417 18.77 151.823 18.638 151.337 18.374C150.851 18.104 150.482 17.747 150.23 17.303C149.984 16.859 149.861 16.37 149.861 15.836C149.861 15.368 149.939 14.948 150.095 14.576C150.251 14.198 150.491 13.874 150.815 13.604C151.139 13.328 151.559 13.103 152.075 12.929C152.465 12.803 152.921 12.689 153.443 12.587C153.971 12.485 154.541 12.392 155.153 12.308C155.771 12.218 156.416 12.122 157.088 12.02L156.314 12.461C156.32 11.789 156.17 11.294 155.864 10.976C155.558 10.658 155.042 10.499 154.316 10.499C153.878 10.499 153.455 10.601 153.047 10.805C152.639 11.009 152.354 11.36 152.192 11.858L150.212 11.237C150.452 10.415 150.908 9.755 151.58 9.257C152.258 8.759 153.17 8.51 154.316 8.51C155.18 8.51 155.939 8.651 156.593 8.933C157.253 9.215 157.742 9.677 158.06 10.319C158.234 10.661 158.339 11.012 158.375 11.372C158.411 11.726 158.429 12.113 158.429 12.533V18.5H156.53V16.394L156.845 16.736C156.407 17.438 155.894 17.954 155.306 18.284C154.724 18.608 153.995 18.77 153.119 18.77ZM153.551 17.042C154.043 17.042 154.463 16.955 154.811 16.781C155.159 16.607 155.435 16.394 155.639 16.142C155.849 15.89 155.99 15.653 156.062 15.431C156.176 15.155 156.239 14.84 156.251 14.486C156.269 14.126 156.278 13.835 156.278 13.613L156.944 13.811C156.29 13.913 155.729 14.003 155.261 14.081C154.793 14.159 154.391 14.234 154.055 14.306C153.719 14.372 153.422 14.447 153.164 14.531C152.912 14.621 152.699 14.726 152.525 14.846C152.351 14.966 152.216 15.104 152.12 15.26C152.03 15.416 151.985 15.599 151.985 15.809C151.985 16.049 152.045 16.262 152.165 16.448C152.285 16.628 152.459 16.772 152.687 16.88C152.921 16.988 153.209 17.042 153.551 17.042ZM164.993 18.77C163.991 18.77 163.136 18.548 162.428 18.104C161.72 17.654 161.177 17.042 160.799 16.268C160.427 15.494 160.238 14.618 160.232 13.64C160.238 12.644 160.433 11.762 160.817 10.994C161.207 10.22 161.759 9.614 162.473 9.176C163.187 8.732 164.036 8.51 165.02 8.51C166.124 8.51 167.057 8.789 167.819 9.347C168.587 9.899 169.088 10.655 169.322 11.615L167.162 12.2C166.994 11.678 166.715 11.273 166.325 10.985C165.935 10.691 165.491 10.544 164.993 10.544C164.429 10.544 163.964 10.679 163.598 10.949C163.232 11.213 162.962 11.579 162.788 12.047C162.614 12.515 162.527 13.046 162.527 13.64C162.527 14.564 162.734 15.311 163.148 15.881C163.562 16.451 164.177 16.736 164.993 16.736C165.569 16.736 166.022 16.604 166.352 16.34C166.688 16.076 166.94 15.695 167.108 15.197L169.322 15.692C169.022 16.682 168.497 17.444 167.747 17.978C166.997 18.506 166.079 18.77 164.993 18.77ZM175.281 18.77C174.297 18.77 173.433 18.557 172.689 18.131C171.945 17.705 171.363 17.114 170.943 16.358C170.529 15.602 170.322 14.732 170.322 13.748C170.322 12.686 170.526 11.765 170.934 10.985C171.342 10.199 171.909 9.59 172.635 9.158C173.361 8.726 174.201 8.51 175.155 8.51C176.163 8.51 177.018 8.747 177.72 9.221C178.428 9.689 178.953 10.352 179.295 11.21C179.637 12.068 179.766 13.079 179.682 14.243H177.531V13.451C177.525 12.395 177.339 11.624 176.973 11.138C176.607 10.652 176.031 10.409 175.245 10.409C174.357 10.409 173.697 10.685 173.265 11.237C172.833 11.783 172.617 12.584 172.617 13.64C172.617 14.624 172.833 15.386 173.265 15.926C173.697 16.466 174.327 16.736 175.155 16.736C175.689 16.736 176.148 16.619 176.532 16.385C176.922 16.145 177.222 15.8 177.432 15.35L179.574 15.998C179.202 16.874 178.626 17.555 177.846 18.041C177.072 18.527 176.217 18.77 175.281 18.77ZM171.933 14.243V12.605H178.62V14.243H171.933Z" fill="white"/>
<defs>
<clipPath id="clip0_1_6">
<rect width="16" height="16" fill="white" transform="translate(0 4)"/>
</clipPath>
</defs>
</svg>
